<?xml version="1.0" encoding="UTF-8"?>
<svg width="62px" height="62px" viewBox="0 0 62 62" version="1.1" xmlns="http://www.w3.org/2000/svg" xmlns:xlink="http://www.w3.org/1999/xlink">
    <!-- Generator: Sketch 52.2 (67145) - http://www.bohemiancoding.com/sketch -->
    <title>bofang</title>
    <desc>Created with Sketch.</desc>
    <g id="Page-1" stroke="none" stroke-width="1" fill="none" fill-rule="evenodd">
        <g id="首页" transform="translate(-929.000000, -3046.000000)" fill="#B8B8B8">
            <g id="bofang" transform="translate(929.000000, 3046.000000)">
                <path d="M31,0 C13.8791975,0 0,13.8791975 0,31 C0,48.1208025 13.8791975,62 31,62 C48.1208025,62 62,48.1208025 62,31 C62,13.8791975 48.1208025,0 31,0 Z M49.9268839,49.9268839 C47.4673168,52.3864511 44.604313,54.3169925 41.4174591,55.6649566 C38.1202563,57.059558 34.6152673,57.7666659 30.9999295,57.7666659 C27.3845916,57.7666659 23.8796026,57.059558 20.5823998,55.6649566 C17.3955459,54.317063 14.5325421,52.3864511 12.072975,49.9268839 C9.61340788,47.4673168 7.68286644,44.604313 6.3349023,41.4174591 C4.94030096,38.1202563 4.23319303,34.6152673 4.23319303,31 C4.23319303,27.3846621 4.94030096,23.8796732 6.3349023,20.5824704 C7.6827959,17.3956165 9.61340788,14.5326126 12.072975,12.0730455 C14.5325421,9.61347841 17.3955459,7.68293697 20.5823998,6.33497283 C23.8796026,4.94037149 27.3845211,4.23326357 30.9999295,4.23326357 C34.6152673,4.23326357 38.1201858,4.94037149 41.4174591,6.33497283 C44.604313,7.68286644 47.4673168,9.61347841 49.9268839,12.0730455 C52.3864511,14.5326126 54.3169925,17.3956165 55.6649566,20.5824704 C57.059558,23.8796732 57.7666659,27.3846621 57.7666659,31 C57.7666659,34.6153379 57.059558,38.1202563 55.6649566,41.4174591 C54.3169926,44.604313 52.3864511,47.4673168 49.9268839,49.9268839 Z" id="形状" fill-rule="nonzero"></path>
                <path d="M45.7987452,30.6504441 L22.6036932,13.0546734 C22.3353536,12.8993153 22,13.0935485 22,13.4042648 L22,48.5957351 C22,48.9064514 22.3353535,49.1006848 22.6036932,48.9453266 L45.7987452,31.349627 C46.0670849,31.1942688 46.0670849,30.8058023 45.7987452,30.6504441 Z" id="路径"></path>
            </g>
        </g>
    </g>
</svg>